# xmcd
#
# Track frame offsets:
#	150
#	16918
#	35513
#	49239
#	62829
#	81092
#	97040
#	111050
#	129586
#	149897
#	164572
#	182423
#	199621
#	214451
#
# Disc length: 3087 seconds
# Revision: 0
# Processed by: cddbd v1.5.2PL0 Copyright (c) Steve Scherf et al.
# Submitted via: dBpowerAMP V12.0
#
DISCID=d00c0d0e
DTITLE=Reba - Love Somebody
DYEAR=2015
DGENRE=Country
TTITLE0=Going Out Like That
TTITLE1=Enough
TTITLE2=She Got Drunk Last Night
TTITLE3=Livin' Ain't Killed Me Yet
TTITLE4=That's When I Knew
TTITLE5=I'll Go On
TTITLE6=Until They Don't Love You
TTITLE7=Promise Me Love
TTITLE8=Just Like Them Horses
TTITLE9=Love Somebody
TTITLE10=Love Land
TTITLE11=Pray For Peace
TTITLE12=Whatever Way It Hurts The Least
TTITLE13=More Than Just Her Last Name
EXTD=
EXTT0=
EXTT1=
EXTT2=
EXTT3=
EXTT4=
EXTT5=
EXTT6=
EXTT7=
EXTT8=
EXTT9=
EXTT10=
EXTT11=
EXTT12=
EXTT13=
PLAYORDER=
